<mxfile host="app.diagrams.net" modified="2023-10-31T16:54:07.628Z" agent="Mozilla/5.0 (X11; Linux x86_64) AppleWebKit/537.36 (KHTML, like Gecko) Chrome/118.0.0.0 Safari/537.36 OPR/104.0.0.0" etag="ISQgSVdJ5e_thvDtKpGm" version="22.0.8" type="device">
  <diagram name="Page-1" id="x_3o_u03GA4J-A0KF81_">
    <mxGraphModel dx="2160" dy="762" grid="1" gridSize="10" guides="1" tooltips="1" connect="1" arrows="1" fold="1" page="1" pageScale="1" pageWidth="850" pageHeight="1100" math="0" shadow="0">
      <root>
        <mxCell id="0" />
        <mxCell id="1" parent="0" />
        <mxCell id="Pgpgeu8OY5fbUgtjJ1s9-26" style="edgeStyle=orthogonalEdgeStyle;rounded=0;orthogonalLoop=1;jettySize=auto;html=1;entryX=0;entryY=1;entryDx=0;entryDy=0;" parent="1" source="lp1KZecpzd5FqZBWPoim-1" target="Pgpgeu8OY5fbUgtjJ1s9-25" edge="1">
          <mxGeometry relative="1" as="geometry" />
        </mxCell>
        <mxCell id="lp1KZecpzd5FqZBWPoim-1" value="Пользователь" style="shape=umlActor;verticalLabelPosition=bottom;verticalAlign=top;html=1;outlineConnect=0;" parent="1" vertex="1">
          <mxGeometry x="125" y="335" width="35" height="65" as="geometry" />
        </mxCell>
        <mxCell id="lp1KZecpzd5FqZBWPoim-7" value="Просмотреть информацию о товарах" style="ellipse;whiteSpace=wrap;html=1;" parent="1" vertex="1">
          <mxGeometry x="-170" y="200" width="140" height="70" as="geometry" />
        </mxCell>
        <mxCell id="lp1KZecpzd5FqZBWPoim-13" style="edgeStyle=orthogonalEdgeStyle;rounded=0;orthogonalLoop=1;jettySize=auto;html=1;exitX=0.5;exitY=0.5;exitDx=0;exitDy=0;exitPerimeter=0;entryX=1;entryY=0.5;entryDx=0;entryDy=0;" parent="1" source="lp1KZecpzd5FqZBWPoim-1" target="Pgpgeu8OY5fbUgtjJ1s9-5" edge="1">
          <mxGeometry relative="1" as="geometry">
            <mxPoint x="84.05999999999995" y="373" as="targetPoint" />
          </mxGeometry>
        </mxCell>
        <mxCell id="Pgpgeu8OY5fbUgtjJ1s9-1" value="Редактировать информацию о товаре" style="ellipse;whiteSpace=wrap;html=1;" parent="1" vertex="1">
          <mxGeometry x="-170" y="90" width="140" height="70" as="geometry" />
        </mxCell>
        <mxCell id="Pgpgeu8OY5fbUgtjJ1s9-2" value="extend" style="html=1;verticalAlign=bottom;endArrow=open;dashed=1;endSize=8;curved=0;rounded=0;entryX=0.5;entryY=1;entryDx=0;entryDy=0;exitX=0.5;exitY=0;exitDx=0;exitDy=0;" parent="1" source="lp1KZecpzd5FqZBWPoim-7" target="Pgpgeu8OY5fbUgtjJ1s9-1" edge="1">
          <mxGeometry relative="1" as="geometry">
            <mxPoint x="209.4974746830585" y="365.25126265847075" as="sourcePoint" />
            <mxPoint x="311" y="390" as="targetPoint" />
          </mxGeometry>
        </mxCell>
        <mxCell id="Pgpgeu8OY5fbUgtjJ1s9-3" value="Удалить товар" style="ellipse;whiteSpace=wrap;html=1;" parent="1" vertex="1">
          <mxGeometry x="-350" y="150" width="140" height="70" as="geometry" />
        </mxCell>
        <mxCell id="Pgpgeu8OY5fbUgtjJ1s9-4" value="extend" style="html=1;verticalAlign=bottom;endArrow=open;dashed=1;endSize=8;curved=0;rounded=0;entryX=1.021;entryY=0.614;entryDx=0;entryDy=0;exitX=0.036;exitY=0.314;exitDx=0;exitDy=0;entryPerimeter=0;exitPerimeter=0;" parent="1" source="lp1KZecpzd5FqZBWPoim-7" target="Pgpgeu8OY5fbUgtjJ1s9-3" edge="1">
          <mxGeometry relative="1" as="geometry">
            <mxPoint x="-90" y="210" as="sourcePoint" />
            <mxPoint x="-90" y="170" as="targetPoint" />
          </mxGeometry>
        </mxCell>
        <mxCell id="Pgpgeu8OY5fbUgtjJ1s9-5" value="Добавить товар" style="ellipse;whiteSpace=wrap;html=1;" parent="1" vertex="1">
          <mxGeometry x="-210" y="330" width="140" height="70" as="geometry" />
        </mxCell>
        <mxCell id="Pgpgeu8OY5fbUgtjJ1s9-6" value="Ввести информацию о товаре" style="ellipse;whiteSpace=wrap;html=1;" parent="1" vertex="1">
          <mxGeometry x="-410" y="330" width="140" height="70" as="geometry" />
        </mxCell>
        <mxCell id="Pgpgeu8OY5fbUgtjJ1s9-7" value="include" style="html=1;verticalAlign=bottom;endArrow=open;dashed=1;endSize=8;curved=0;rounded=0;entryX=1;entryY=0.5;entryDx=0;entryDy=0;exitX=0;exitY=0.5;exitDx=0;exitDy=0;" parent="1" source="Pgpgeu8OY5fbUgtjJ1s9-5" target="Pgpgeu8OY5fbUgtjJ1s9-6" edge="1">
          <mxGeometry relative="1" as="geometry">
            <mxPoint x="160" y="355" as="sourcePoint" />
            <mxPoint x="-90" y="280" as="targetPoint" />
          </mxGeometry>
        </mxCell>
        <mxCell id="Pgpgeu8OY5fbUgtjJ1s9-8" style="edgeStyle=orthogonalEdgeStyle;rounded=0;orthogonalLoop=1;jettySize=auto;html=1;entryX=0.964;entryY=0.786;entryDx=0;entryDy=0;entryPerimeter=0;" parent="1" source="lp1KZecpzd5FqZBWPoim-1" target="lp1KZecpzd5FqZBWPoim-7" edge="1">
          <mxGeometry relative="1" as="geometry">
            <mxPoint x="150" y="375" as="sourcePoint" />
            <mxPoint x="-60" y="375" as="targetPoint" />
            <Array as="points">
              <mxPoint x="10" y="365" />
              <mxPoint x="10" y="255" />
            </Array>
          </mxGeometry>
        </mxCell>
        <mxCell id="Pgpgeu8OY5fbUgtjJ1s9-9" value="Найти покупателей, сделавших покупку на максимальную сумму в выбранную дату" style="ellipse;whiteSpace=wrap;html=1;" parent="1" vertex="1">
          <mxGeometry x="50" y="190" width="140" height="70" as="geometry" />
        </mxCell>
        <mxCell id="Pgpgeu8OY5fbUgtjJ1s9-10" value="Просмотреть информацию о товарах" style="ellipse;whiteSpace=wrap;html=1;" parent="1" vertex="1">
          <mxGeometry x="-210" y="540" width="140" height="70" as="geometry" />
        </mxCell>
        <mxCell id="Pgpgeu8OY5fbUgtjJ1s9-11" value="Редактировать информацию о накладной" style="ellipse;whiteSpace=wrap;html=1;" parent="1" vertex="1">
          <mxGeometry x="-210" y="430" width="140" height="70" as="geometry" />
        </mxCell>
        <mxCell id="Pgpgeu8OY5fbUgtjJ1s9-12" value="extend" style="html=1;verticalAlign=bottom;endArrow=open;dashed=1;endSize=8;curved=0;rounded=0;entryX=0.5;entryY=1;entryDx=0;entryDy=0;exitX=0.5;exitY=0;exitDx=0;exitDy=0;" parent="1" source="Pgpgeu8OY5fbUgtjJ1s9-10" target="Pgpgeu8OY5fbUgtjJ1s9-11" edge="1">
          <mxGeometry relative="1" as="geometry">
            <mxPoint x="169.4974746830585" y="705.2512626584708" as="sourcePoint" />
            <mxPoint x="271" y="730" as="targetPoint" />
          </mxGeometry>
        </mxCell>
        <mxCell id="Pgpgeu8OY5fbUgtjJ1s9-13" value="Удалить накладную" style="ellipse;whiteSpace=wrap;html=1;" parent="1" vertex="1">
          <mxGeometry x="-390" y="490" width="140" height="70" as="geometry" />
        </mxCell>
        <mxCell id="Pgpgeu8OY5fbUgtjJ1s9-14" value="extend" style="html=1;verticalAlign=bottom;endArrow=open;dashed=1;endSize=8;curved=0;rounded=0;entryX=1.021;entryY=0.614;entryDx=0;entryDy=0;exitX=0.036;exitY=0.314;exitDx=0;exitDy=0;entryPerimeter=0;exitPerimeter=0;" parent="1" source="Pgpgeu8OY5fbUgtjJ1s9-10" target="Pgpgeu8OY5fbUgtjJ1s9-13" edge="1">
          <mxGeometry relative="1" as="geometry">
            <mxPoint x="-130" y="550" as="sourcePoint" />
            <mxPoint x="-130" y="510" as="targetPoint" />
          </mxGeometry>
        </mxCell>
        <mxCell id="Pgpgeu8OY5fbUgtjJ1s9-15" value="Добавить накладную" style="ellipse;whiteSpace=wrap;html=1;" parent="1" vertex="1">
          <mxGeometry x="-250" y="670" width="140" height="70" as="geometry" />
        </mxCell>
        <mxCell id="Pgpgeu8OY5fbUgtjJ1s9-16" value="Ввести данные" style="ellipse;whiteSpace=wrap;html=1;" parent="1" vertex="1">
          <mxGeometry x="-450" y="670" width="140" height="70" as="geometry" />
        </mxCell>
        <mxCell id="Pgpgeu8OY5fbUgtjJ1s9-17" value="include" style="html=1;verticalAlign=bottom;endArrow=open;dashed=1;endSize=8;curved=0;rounded=0;entryX=1;entryY=0.5;entryDx=0;entryDy=0;exitX=0;exitY=0.5;exitDx=0;exitDy=0;" parent="1" source="Pgpgeu8OY5fbUgtjJ1s9-15" target="Pgpgeu8OY5fbUgtjJ1s9-16" edge="1">
          <mxGeometry relative="1" as="geometry">
            <mxPoint x="120" y="695" as="sourcePoint" />
            <mxPoint x="-130" y="620" as="targetPoint" />
          </mxGeometry>
        </mxCell>
        <mxCell id="Pgpgeu8OY5fbUgtjJ1s9-18" value="Просмотреть информацию о накладных" style="ellipse;whiteSpace=wrap;html=1;" parent="1" vertex="1">
          <mxGeometry x="-210" y="540" width="140" height="70" as="geometry" />
        </mxCell>
        <mxCell id="Pgpgeu8OY5fbUgtjJ1s9-19" style="edgeStyle=orthogonalEdgeStyle;rounded=0;orthogonalLoop=1;jettySize=auto;html=1;entryX=1;entryY=0.5;entryDx=0;entryDy=0;" parent="1" target="Pgpgeu8OY5fbUgtjJ1s9-18" edge="1">
          <mxGeometry relative="1" as="geometry">
            <mxPoint x="135" y="375" as="sourcePoint" />
            <mxPoint x="-25" y="265" as="targetPoint" />
            <Array as="points">
              <mxPoint x="135" y="370" />
              <mxPoint x="20" y="370" />
              <mxPoint x="20" y="530" />
              <mxPoint x="-70" y="530" />
            </Array>
          </mxGeometry>
        </mxCell>
        <mxCell id="Pgpgeu8OY5fbUgtjJ1s9-20" style="edgeStyle=orthogonalEdgeStyle;rounded=0;orthogonalLoop=1;jettySize=auto;html=1;entryX=1;entryY=0.5;entryDx=0;entryDy=0;" parent="1" source="lp1KZecpzd5FqZBWPoim-1" target="Pgpgeu8OY5fbUgtjJ1s9-15" edge="1">
          <mxGeometry relative="1" as="geometry">
            <mxPoint x="145" y="385" as="sourcePoint" />
            <mxPoint x="-60" y="585" as="targetPoint" />
            <Array as="points">
              <mxPoint x="30" y="370" />
              <mxPoint x="30" y="705" />
            </Array>
          </mxGeometry>
        </mxCell>
        <mxCell id="Pgpgeu8OY5fbUgtjJ1s9-21" value="" style="endArrow=classic;html=1;rounded=0;exitX=0.5;exitY=0.5;exitDx=0;exitDy=0;exitPerimeter=0;entryX=0.429;entryY=1.014;entryDx=0;entryDy=0;entryPerimeter=0;" parent="1" source="lp1KZecpzd5FqZBWPoim-1" target="Pgpgeu8OY5fbUgtjJ1s9-9" edge="1">
          <mxGeometry width="50" height="50" relative="1" as="geometry">
            <mxPoint x="140" y="320" as="sourcePoint" />
            <mxPoint x="190" y="270" as="targetPoint" />
          </mxGeometry>
        </mxCell>
        <mxCell id="Pgpgeu8OY5fbUgtjJ1s9-22" value="Ввести дату" style="ellipse;whiteSpace=wrap;html=1;" parent="1" vertex="1">
          <mxGeometry y="80" width="140" height="70" as="geometry" />
        </mxCell>
        <mxCell id="Pgpgeu8OY5fbUgtjJ1s9-23" value="include" style="html=1;verticalAlign=bottom;endArrow=open;dashed=1;endSize=8;curved=0;rounded=0;entryX=0.407;entryY=1.029;entryDx=0;entryDy=0;exitX=0.364;exitY=0.029;exitDx=0;exitDy=0;entryPerimeter=0;exitPerimeter=0;" parent="1" source="Pgpgeu8OY5fbUgtjJ1s9-9" target="Pgpgeu8OY5fbUgtjJ1s9-22" edge="1">
          <mxGeometry x="-0.098" y="11" relative="1" as="geometry">
            <mxPoint x="94.94000000000005" y="207.98000000000002" as="sourcePoint" />
            <mxPoint x="85" y="162.99" as="targetPoint" />
            <mxPoint as="offset" />
          </mxGeometry>
        </mxCell>
        <mxCell id="Pgpgeu8OY5fbUgtjJ1s9-25" value="Просмотр списка категорий товара" style="ellipse;whiteSpace=wrap;html=1;" parent="1" vertex="1">
          <mxGeometry x="220" y="265" width="140" height="70" as="geometry" />
        </mxCell>
        <mxCell id="zCQ0HCm75yMwrZ9BOi_F-1" value="Просмотр истории изменения стоимости товара" style="ellipse;whiteSpace=wrap;html=1;" vertex="1" parent="1">
          <mxGeometry x="200" y="430" width="140" height="70" as="geometry" />
        </mxCell>
        <mxCell id="zCQ0HCm75yMwrZ9BOi_F-2" style="edgeStyle=orthogonalEdgeStyle;rounded=0;orthogonalLoop=1;jettySize=auto;html=1;exitX=0.5;exitY=0.5;exitDx=0;exitDy=0;exitPerimeter=0;entryX=0.093;entryY=0.214;entryDx=0;entryDy=0;entryPerimeter=0;" edge="1" parent="1" source="lp1KZecpzd5FqZBWPoim-1" target="zCQ0HCm75yMwrZ9BOi_F-1">
          <mxGeometry relative="1" as="geometry">
            <Array as="points">
              <mxPoint x="190" y="368" />
              <mxPoint x="190" y="445" />
            </Array>
          </mxGeometry>
        </mxCell>
        <mxCell id="zCQ0HCm75yMwrZ9BOi_F-3" value="Выбрать товар" style="ellipse;whiteSpace=wrap;html=1;" vertex="1" parent="1">
          <mxGeometry x="310" y="515" width="140" height="70" as="geometry" />
        </mxCell>
        <mxCell id="zCQ0HCm75yMwrZ9BOi_F-4" value="include" style="html=1;verticalAlign=bottom;endArrow=open;dashed=1;endSize=8;curved=0;rounded=0;entryX=0.5;entryY=0;entryDx=0;entryDy=0;" edge="1" parent="1" source="zCQ0HCm75yMwrZ9BOi_F-1" target="zCQ0HCm75yMwrZ9BOi_F-3">
          <mxGeometry x="0.1068" y="14" relative="1" as="geometry">
            <mxPoint x="111" y="202" as="sourcePoint" />
            <mxPoint x="67" y="162" as="targetPoint" />
            <mxPoint x="1" as="offset" />
          </mxGeometry>
        </mxCell>
      </root>
    </mxGraphModel>
  </diagram>
</mxfile>
